<?xml version="1.0" standalone="no"?>
<!DOCTYPE svg PUBLIC "-//W3C//DTD SVG 20010904//EN"
 "http://www.w3.org/TR/2001/REC-SVG-20010904/DTD/svg10.dtd">
<svg version="1.0" xmlns="http://www.w3.org/2000/svg"
 width="820.000000pt" height="223.000000pt" viewBox="0 0 820.000000 223.000000"
 preserveAspectRatio="xMidYMid meet">

<g transform="translate(0.000000,223.000000) scale(0.100000,-0.100000)"
fill="#000000" stroke="none">
<path d="M997 1823 c-4 -3 -7 -51 -7 -105 l0 -98 100 0 100 0 0 -575 0 -575
125 0 125 0 0 680 0 680 -218 0 c-120 0 -222 -3 -225 -7z"/>
<path d="M463 1485 c-171 -46 -300 -183 -344 -365 -20 -79 -17 -242 5 -315 28
-93 73 -169 137 -230 74 -71 160 -111 267 -127 160 -22 337 37 442 148 l52 55
-62 69 c-34 39 -63 70 -64 70 -1 0 -27 -24 -57 -54 -67 -64 -128 -88 -228 -88
-79 0 -137 21 -193 71 -44 38 -88 123 -88 168 l0 33 355 0 355 0 0 68 c-1 204
-100 395 -242 464 -99 48 -230 61 -335 33z m210 -179 c63 -26 127 -116 142
-199 l7 -37 -247 0 -247 0 7 33 c27 124 135 217 252 217 30 0 68 -6 86 -14z"/>
<path d="M1980 1489 c-136 -26 -280 -144 -345 -281 -182 -383 122 -820 528
-759 103 16 188 61 267 140 117 118 167 250 157 416 -9 152 -57 254 -167 359
-117 111 -276 157 -440 125z m208 -238 c54 -28 118 -102 137 -162 27 -79 22
-186 -11 -259 -29 -65 -85 -123 -140 -146 -50 -21 -140 -18 -191 7 -56 27
-107 88 -134 158 -28 75 -24 205 9 268 74 143 207 197 330 134z"/>
<path d="M4200 1474 c-67 -18 -140 -64 -185 -117 l-35 -41 0 72 0 72 -165 0
-165 0 0 -45 0 -44 118 -3 117 -3 3 -447 2 -448 45 0 44 0 3 333 3 332 26 55
c14 31 41 72 58 93 41 46 140 95 209 104 l52 6 0 48 0 49 -37 -1 c-21 0 -63
-7 -93 -15z"/>
<path d="M4726 1468 c-181 -18 -358 -180 -400 -368 -45 -195 2 -379 129 -505
100 -99 210 -145 351 -145 136 0 246 50 346 159 188 203 181 527 -15 724 -107
107 -243 152 -411 135z m169 -103 c113 -30 206 -112 262 -231 26 -54 28 -69
28 -174 0 -110 -2 -119 -32 -181 -40 -81 -117 -160 -192 -196 -51 -25 -66 -28
-166 -28 -96 0 -116 3 -160 24 -67 33 -155 123 -188 192 -75 161 -47 355 69
480 106 113 234 151 379 114z"/>
<path d="M3041 1440 c-92 -25 -147 -57 -200 -116 -80 -91 -114 -193 -114 -344
0 -163 47 -289 147 -397 65 -70 128 -107 222 -129 87 -20 226 -14 307 13 l57
20 0 -62 c0 -95 -24 -160 -78 -214 -29 -28 -63 -51 -88 -59 -91 -27 -254 -8
-348 40 l-39 20 -18 -23 c-27 -35 -33 -60 -18 -70 33 -21 130 -52 204 -66 202
-37 362 25 432 167 18 36 37 94 43 130 6 38 10 282 10 588 l0 522 -222 -1
c-187 0 -235 -3 -297 -19z m419 -453 l0 -383 -43 -21 c-101 -49 -232 -53 -345
-11 -107 40 -204 165 -233 299 -19 86 -7 235 23 300 45 96 138 166 250 188 24
5 112 9 196 10 l152 1 0 -383z"/>
<path d="M5280 1415 l0 -44 118 -3 117 -3 5 -340 c5 -325 6 -342 28 -397 30
-75 99 -138 177 -163 42 -13 79 -16 143 -13 105 5 188 39 288 119 l64 51 0
-76 0 -76 45 0 45 0 0 495 0 495 -45 0 -45 0 0 -350 0 -350 -66 -70 c-50 -52
-86 -80 -141 -107 -67 -33 -83 -37 -156 -37 -66 -1 -91 4 -129 23 -108 52
-118 97 -118 543 l0 348 -165 0 -165 0 0 -45z"/>
<path d="M6400 1415 l0 -45 120 0 120 0 0 -661 0 -660 48 3 47 3 3 213 c2 198
4 213 20 207 48 -18 145 -35 207 -35 143 0 259 45 345 132 250 254 194 739
-97 848 -97 36 -144 40 -484 40 l-329 0 0 -45z m671 -55 c166 -31 264 -132
289 -299 30 -192 -63 -402 -212 -477 -107 -54 -260 -55 -366 -2 l-47 23 -3
370 c-1 203 0 376 3 382 6 16 255 18 336 3z"/>
</g>
</svg>
